<?xml version="1.0" encoding="UTF-8"?>
<svg id="Calque_1" data-name="Calque 1" xmlns="http://www.w3.org/2000/svg" viewBox="0 0 512 300.08">
  <defs>
    <style>
      .cls-1 {
        fill: #f6a229;
      }

      .cls-1, .cls-2, .cls-3 {
        stroke-width: 0px;
      }

      .cls-2 {
        fill: #e94f2a;
      }

      .cls-3 {
        fill: #113656;
      }
    </style>
  </defs>
  <g>
    <path class="cls-3" d="m98.28,136.83l-38.16-21.53-19.2-10.84v46.08l19.2,10.39,12.3,6.66,25.86,14.01,2.97,1.61c7.3,3.95,16.16-1.33,16.16-9.63v-7.59c0-11.19-5.97-21.54-15.66-27.15l-3.47-2.01Zm0,32.19c0,3.83-4.1,6.27-7.47,4.45l-14.78-8.01h-.01l-12.81-6.94c-1.9-1.03-3.09-3.02-3.09-5.19v-14.4c0-.57.61-.92,1.1-.64l31.11,17.55h0c3.68,2.08,5.95,5.97,5.95,10.19v2.99Z"/>
    <path class="cls-3" d="m98.28,181.6l-25.86-14.01-12.3-6.66-19.2-10.39v53.24l19.2,10.84,38.16,21.53h0c9.32,5.16,20.76-1.58,20.76-12.24v-12.6c0-11.5-6.35-22.06-16.5-27.45l-4.26-2.26Zm.6,24.53c0,4.4-4.74,7.18-8.58,5.02l-29.02-16.3c-.72-.4-1.16-1.16-1.16-1.99v-15.93c0-.55.59-.9,1.07-.64l29.3,15.67c5.16,2.76,8.39,8.14,8.39,14v.17Z"/>
    <path class="cls-1" d="m191.02,103.37v99.61l-38.16,22.54-18.19,10.74-10.23,6.04v-80.9c0-3.86-.53-7.47-1.47-10.64-.02-.07-.04-.14-.06-.21-1.05-3.52-2.6-6.46-4.47-8.52-.02-.02-.04-.05-.06-.07-.31-.34-.63-.65-.97-.94l.07-.04.96-.56,6-3.55,45.79-27.04.04-.02,18.54-10.95.13-.08c1.1,1.32,1.84,2.89,2.08,4.59Z"/>
    <path class="cls-2" d="m188.94,98.78l-.13.08-18.54,10.95-.04.02-45.79,27.04-6,3.55-.96.56-.07.04-.21-.18s-.05-.04-.08-.06c-.89-.74-18.84-10.63-18.84-10.63l-38.16-21.53-19.2-10.83,19.2-11.34,44.73-26.42c4.98-2.94,11.16-3,16.19-.16l63.16,35.64s.03.01.04.02l2.16,1.22c.94.53,1.82,1.19,2.52,2.02,0,0,0,.01.01.02Z"/>
  </g>
  <g>
    <g>
      <path class="cls-3" d="m283.07,148.64c0,10.54-8.41,16.64-24.54,16.64h-31.72v-60.99h29.97c15.33,0,23.22,6.36,23.22,15.86,0,6.1-3.15,10.8-8.15,13.42,6.83,2.18,11.22,7.41,11.22,15.07Zm-42.15-33.72v14.38h14.11c6.92,0,10.69-2.44,10.69-7.23s-3.77-7.14-10.69-7.14h-14.11Zm27.87,32.24c0-5.14-3.94-7.58-11.3-7.58h-16.56v15.07h16.56c7.36,0,11.3-2.27,11.3-7.49Z"/>
      <path class="cls-3" d="m334.6,138.53v26.75h-12.79v-5.84c-2.54,4.27-7.45,6.53-14.37,6.53-11.04,0-17.61-6.1-17.61-14.2s5.87-14.03,20.24-14.03h10.87c0-5.84-3.5-9.24-10.87-9.24-5,0-10.17,1.66-13.58,4.36l-4.91-9.5c5.17-3.66,12.79-5.66,20.33-5.66,14.37,0,22.7,6.62,22.7,20.82Zm-13.67,11.94v-4.79h-9.38c-6.4,0-8.41,2.35-8.41,5.49,0,3.4,2.89,5.66,7.71,5.66,4.56,0,8.5-2.09,10.08-6.36Z"/>
      <path class="cls-3" d="m377.36,163.02c-2.8,2-6.92,2.96-11.13,2.96-11.13,0-17.61-5.66-17.61-16.82v-19.26h-7.27v-10.46h7.27v-11.41h13.67v11.41h11.74v10.46h-11.74v19.08c0,4.01,2.19,6.19,5.87,6.19,2.01,0,4.03-.61,5.52-1.74l3.68,9.58Z"/>
      <path class="cls-3" d="m383.41,104.29c0-4.27,3.42-7.58,8.5-7.58s8.5,3.14,8.5,7.32c0,4.53-3.42,7.84-8.5,7.84s-8.5-3.31-8.5-7.58Zm1.67,14.11h13.67v46.87h-13.67v-46.87Z"/>
      <path class="cls-3" d="m407.95,141.84c0-14.11,10.95-24.13,25.94-24.13s25.85,10.02,25.85,24.13-10.87,24.13-25.85,24.13-25.94-10.02-25.94-24.13Zm37.94,0c0-8.1-5.17-12.98-12-12.98s-12.09,4.88-12.09,12.98,5.26,12.98,12.09,12.98,12-4.88,12-12.98Z"/>
    </g>
    <g>
      <path class="cls-3" d="m226.81,178.4h8.88c6.4,0,10.78,3.85,10.78,9.78s-4.39,9.78-10.78,9.78h-8.88v-19.55Zm8.66,15.84c3.88,0,6.42-2.32,6.42-6.06s-2.54-6.06-6.42-6.06h-4.13v12.12h4.13Z"/>
      <path class="cls-3" d="m264.2,191.66h-11.37c.42,1.87,2.01,3.02,4.3,3.02,1.59,0,2.74-.47,3.77-1.45l2.32,2.51c-1.4,1.59-3.49,2.43-6.2,2.43-5.2,0-8.57-3.27-8.57-7.74s3.44-7.74,8.02-7.74,7.82,2.96,7.82,7.79c0,.33-.06.81-.08,1.17Zm-11.42-2.54h7.4c-.31-1.9-1.73-3.13-3.69-3.13s-3.41,1.2-3.71,3.13Zm4.47-8.13h-3.41l3.77-4.02h4.69l-5.06,4.02Z"/>
      <path class="cls-3" d="m281.82,182.92l-6.34,15.03h-4.5l-6.31-15.03h4.5l4.16,10.22,4.3-10.22h4.19Z"/>
      <path class="cls-3" d="m297.83,191.66h-11.37c.42,1.87,2.01,3.02,4.3,3.02,1.59,0,2.74-.47,3.77-1.45l2.32,2.51c-1.4,1.59-3.49,2.43-6.2,2.43-5.19,0-8.57-3.27-8.57-7.74s3.44-7.74,8.02-7.74,7.82,2.96,7.82,7.79c0,.33-.06.81-.08,1.17Zm-11.42-2.54h7.4c-.31-1.9-1.73-3.13-3.69-3.13s-3.41,1.2-3.71,3.13Z"/>
      <path class="cls-3" d="m300.81,177.22h4.36v20.73h-4.36v-20.73Z"/>
      <path class="cls-3" d="m308.1,190.44c0-4.52,3.49-7.74,8.27-7.74s8.24,3.21,8.24,7.74-3.46,7.74-8.24,7.74-8.27-3.21-8.27-7.74Zm12.1,0c0-2.6-1.65-4.16-3.83-4.16s-3.85,1.56-3.85,4.16,1.68,4.16,3.85,4.16,3.83-1.56,3.83-4.16Z"/>
      <path class="cls-3" d="m343.88,190.44c0,4.72-3.27,7.74-7.49,7.74-1.87,0-3.41-.59-4.52-1.82v7.01h-4.36v-20.45h4.16v1.73c1.09-1.31,2.71-1.95,4.72-1.95,4.22,0,7.49,3.02,7.49,7.74Zm-4.41,0c0-2.6-1.65-4.16-3.83-4.16s-3.83,1.56-3.83,4.16,1.65,4.16,3.83,4.16,3.83-1.56,3.83-4.16Z"/>
      <path class="cls-3" d="m363.14,190.44c0,4.72-3.27,7.74-7.49,7.74-1.87,0-3.41-.59-4.52-1.82v7.01h-4.36v-20.45h4.16v1.73c1.09-1.31,2.71-1.95,4.72-1.95,4.22,0,7.49,3.02,7.49,7.74Zm-4.41,0c0-2.6-1.65-4.16-3.83-4.16s-3.83,1.56-3.83,4.16,1.65,4.16,3.83,4.16,3.83-1.56,3.83-4.16Z"/>
      <path class="cls-3" d="m380.68,191.66h-11.37c.42,1.87,2.01,3.02,4.3,3.02,1.59,0,2.74-.47,3.77-1.45l2.32,2.51c-1.4,1.59-3.49,2.43-6.2,2.43-5.19,0-8.57-3.27-8.57-7.74s3.44-7.74,8.02-7.74,7.82,2.96,7.82,7.79c0,.33-.06.81-.08,1.17Zm-11.42-2.54h7.4c-.31-1.9-1.73-3.13-3.69-3.13s-3.41,1.2-3.71,3.13Z"/>
      <path class="cls-3" d="m409.06,189.35v8.6h-4.36v-7.93c0-2.43-1.09-3.55-2.85-3.55-1.95,0-3.32,1.26-3.32,3.94v7.54h-4.36v-7.93c0-2.43-1.03-3.55-2.85-3.55-1.93,0-3.3,1.26-3.3,3.94v7.54h-4.36v-15.03h4.16v1.73c1.12-1.28,2.79-1.95,4.72-1.95,2.1,0,3.88.81,4.94,2.46,1.2-1.54,3.16-2.46,5.42-2.46,3.58,0,6.14,2.07,6.14,6.65Z"/>
      <path class="cls-3" d="m427.76,191.66h-11.37c.42,1.87,2.01,3.02,4.3,3.02,1.59,0,2.74-.47,3.77-1.45l2.32,2.51c-1.4,1.59-3.49,2.43-6.2,2.43-5.19,0-8.57-3.27-8.57-7.74s3.44-7.74,8.02-7.74,7.82,2.96,7.82,7.79c0,.33-.06.81-.08,1.17Zm-11.42-2.54h7.4c-.31-1.9-1.73-3.13-3.69-3.13s-3.41,1.2-3.71,3.13Z"/>
      <path class="cls-3" d="m446.11,189.35v8.6h-4.36v-7.93c0-2.43-1.12-3.55-3.04-3.55-2.09,0-3.6,1.28-3.6,4.05v7.43h-4.36v-15.03h4.16v1.76c1.17-1.28,2.93-1.98,4.97-1.98,3.55,0,6.23,2.07,6.23,6.65Z"/>
      <path class="cls-3" d="m459.74,197.22c-.89.64-2.21.95-3.55.95-3.55,0-5.61-1.82-5.61-5.39v-6.17h-2.32v-3.35h2.32v-3.66h4.36v3.66h3.74v3.35h-3.74v6.12c0,1.28.7,1.98,1.87,1.98.64,0,1.28-.2,1.76-.56l1.17,3.07Z"/>
    </g>
    <circle class="cls-2" cx="467.3" cy="176.97" r="3.78"/>
  </g>
</svg>