<?xml version="1.0" encoding="UTF-8"?>
<svg id="Calque_1" data-name="Calque 1" xmlns="http://www.w3.org/2000/svg" viewBox="0 0 244.11 300.08">
  <defs>
    <style>
      .cls-1 {
        fill: #f6a229;
      }

      .cls-1, .cls-2, .cls-3 {
        stroke-width: 0px;
      }

      .cls-2 {
        fill: #e94f2a;
      }

      .cls-3 {
        fill: #113656;
      }
    </style>
  </defs>
  <path class="cls-3" d="m93.29,128.55l-62.06-35.01L0,75.91v74.94l31.23,16.9,20,10.83,42.06,22.78,4.83,2.61c11.86,6.42,26.28-2.17,26.28-15.66v-12.34c0-18.21-9.7-35.03-25.46-44.15l-5.65-3.27Zm0,52.35c0,6.23-6.66,10.2-12.14,7.23l-24.04-13.02h-.02l-20.83-11.28c-3.1-1.68-5.03-4.91-5.03-8.44v-23.42c0-.92.99-1.5,1.8-1.05l50.59,28.54h0c5.98,3.38,9.68,9.71,9.68,16.58v4.86Z"/>
  <path class="cls-3" d="m93.29,201.36l-42.06-22.78-20-10.83L0,150.85v86.58l31.23,17.63,62.06,35.01h0c15.16,8.39,33.76-2.58,33.76-19.9v-20.49c0-18.7-10.32-35.87-26.83-44.64l-6.93-3.68Zm.98,39.89c0,7.16-7.71,11.68-13.96,8.17l-47.19-26.5c-1.17-.66-1.89-1.89-1.89-3.23v-25.91c0-.89.95-1.46,1.74-1.04l47.65,25.48c8.4,4.49,13.64,13.24,13.64,22.76v.27Z"/>
  <path class="cls-1" d="m244.11,74.14v162l-62.06,36.66-29.58,17.47-16.64,9.82v-131.57c0-6.28-.86-12.15-2.39-17.3-.03-.11-.07-.23-.1-.34-1.71-5.72-4.23-10.51-7.27-13.86-.03-.03-.07-.08-.1-.11-.5-.55-1.02-1.06-1.58-1.53l.11-.07,1.56-.91,9.76-5.77,74.47-43.98.07-.03,30.15-17.81.21-.13c1.79,2.15,2.99,4.7,3.38,7.46Z"/>
  <path class="cls-2" d="m240.73,66.67l-.21.13-30.15,17.81-.07.03-74.47,43.98-9.76,5.77-1.56.91-.11.07-.34-.29s-.08-.07-.13-.1c-1.45-1.2-30.64-17.29-30.64-17.29l-62.06-35.01L0,65.06l31.23-18.44L103.97,3.66c8.1-4.79,18.14-4.88,26.34-.26l102.71,57.95s.05.02.07.03l3.52,1.98c1.54.86,2.97,1.93,4.11,3.28,0,0,.01.02.02.02Z"/>
</svg>