<?xml version="1.0" encoding="UTF-8"?>
<svg id="Calque_1" data-name="Calque 1" xmlns="http://www.w3.org/2000/svg" viewBox="0 0 512 512">
  <defs>
    <style>
      .cls-1 {
        fill: #f6a229;
      }

      .cls-1, .cls-2, .cls-3 {
        stroke-width: 0px;
      }

      .cls-2 {
        fill: #e94f2a;
      }

      .cls-3 {
        fill: #113656;
      }
    </style>
  </defs>
  <g>
    <path class="cls-3" d="m233.95,172.31l-47.56-26.83-23.93-13.51v57.43l23.93,12.95,15.33,8.3,32.23,17.46,3.7,2c9.09,4.92,20.14-1.66,20.14-12v-9.46c0-13.95-7.44-26.85-19.51-33.84l-4.33-2.51Zm0,40.12c0,4.78-5.1,7.82-9.3,5.54l-18.43-9.98h-.01l-15.97-8.65c-2.37-1.28-3.85-3.77-3.85-6.47v-17.95c0-.71.76-1.15,1.38-.8l38.77,21.87h0c4.58,2.59,7.42,7.44,7.42,12.7v3.72Z"/>
    <path class="cls-3" d="m233.95,228.11l-32.23-17.46-15.33-8.3-23.93-12.95v66.36l23.93,13.51,47.56,26.83h0c11.62,6.43,25.87-1.97,25.87-15.25v-15.7c0-14.33-7.91-27.49-20.56-34.21l-5.31-2.82Zm.75,30.57c0,5.49-5.91,8.95-10.7,6.26l-36.17-20.31c-.89-.5-1.45-1.45-1.45-2.48v-19.86c0-.68.73-1.12,1.33-.8l36.52,19.53c6.44,3.44,10.45,10.15,10.45,17.45v.21Z"/>
    <path class="cls-1" d="m349.54,130.61v124.15l-47.56,28.09-22.67,13.39-12.75,7.53v-100.83c0-4.81-.66-9.31-1.83-13.26-.02-.09-.05-.17-.07-.26-1.31-4.39-3.24-8.05-5.57-10.62-.02-.02-.05-.06-.07-.09-.39-.42-.79-.81-1.21-1.17l.09-.05,1.2-.7,7.48-4.42,57.07-33.7.05-.02,23.11-13.65.16-.1c1.37,1.65,2.29,3.6,2.59,5.72Z"/>
    <path class="cls-2" d="m346.95,124.88l-.16.1-23.11,13.65-.05.02-57.07,33.7-7.48,4.42-1.2.7-.09.05-.26-.22s-.06-.05-.1-.07c-1.11-.92-23.48-13.25-23.48-13.25l-47.56-26.83-23.93-13.5,23.93-14.13,55.75-32.92c6.21-3.67,13.9-3.74,20.18-.2l78.72,44.42s.04.01.05.02l2.7,1.52c1.18.66,2.27,1.48,3.15,2.51,0,0,.01.01.02.02Z"/>
  </g>
  <g>
    <g>
      <path class="cls-3" d="m190.12,383.48c0,10.54-8.41,16.64-24.54,16.64h-31.72v-60.99h29.97c15.33,0,23.22,6.36,23.22,15.86,0,6.1-3.15,10.8-8.15,13.42,6.83,2.18,11.22,7.41,11.22,15.07Zm-42.15-33.72v14.38h14.11c6.92,0,10.69-2.44,10.69-7.23s-3.77-7.14-10.69-7.14h-14.11Zm27.87,32.24c0-5.14-3.94-7.58-11.3-7.58h-16.56v15.07h16.56c7.36,0,11.3-2.27,11.3-7.49Z"/>
      <path class="cls-3" d="m241.65,373.38v26.75h-12.79v-5.84c-2.54,4.27-7.45,6.53-14.37,6.53-11.04,0-17.61-6.1-17.61-14.2s5.87-14.03,20.24-14.03h10.87c0-5.84-3.5-9.24-10.87-9.24-5,0-10.17,1.66-13.58,4.36l-4.91-9.5c5.17-3.66,12.79-5.66,20.33-5.66,14.37,0,22.7,6.62,22.7,20.82Zm-13.67,11.94v-4.79h-9.38c-6.4,0-8.41,2.35-8.41,5.49,0,3.4,2.89,5.66,7.71,5.66,4.56,0,8.5-2.09,10.08-6.36Z"/>
      <path class="cls-3" d="m284.42,397.86c-2.8,2-6.92,2.96-11.13,2.96-11.13,0-17.61-5.66-17.61-16.82v-19.26h-7.27v-10.46h7.27v-11.41h13.67v11.41h11.74v10.46h-11.74v19.08c0,4.01,2.19,6.19,5.87,6.19,2.01,0,4.03-.61,5.52-1.74l3.68,9.58Z"/>
      <path class="cls-3" d="m290.47,339.14c0-4.27,3.42-7.58,8.5-7.58s8.5,3.14,8.5,7.32c0,4.53-3.42,7.84-8.5,7.84s-8.5-3.31-8.5-7.58Zm1.67,14.11h13.67v46.87h-13.67v-46.87Z"/>
      <path class="cls-3" d="m315,376.69c0-14.11,10.95-24.13,25.94-24.13s25.85,10.02,25.85,24.13-10.87,24.13-25.85,24.13-25.94-10.02-25.94-24.13Zm37.94,0c0-8.1-5.17-12.98-12-12.98s-12.09,4.88-12.09,12.98,5.26,12.98,12.09,12.98,12-4.88,12-12.98Z"/>
    </g>
    <g>
      <path class="cls-3" d="m133.86,413.24h8.88c6.4,0,10.78,3.85,10.78,9.78s-4.39,9.78-10.78,9.78h-8.88v-19.55Zm8.66,15.84c3.88,0,6.42-2.32,6.42-6.06s-2.54-6.06-6.42-6.06h-4.13v12.12h4.13Z"/>
      <path class="cls-3" d="m171.26,426.51h-11.37c.42,1.87,2.01,3.02,4.3,3.02,1.59,0,2.74-.47,3.77-1.45l2.32,2.51c-1.4,1.59-3.49,2.43-6.2,2.43-5.2,0-8.57-3.27-8.57-7.74s3.44-7.74,8.02-7.74,7.82,2.96,7.82,7.79c0,.33-.06.81-.08,1.17Zm-11.42-2.54h7.4c-.31-1.9-1.73-3.13-3.69-3.13s-3.41,1.2-3.71,3.13Zm4.47-8.13h-3.41l3.77-4.02h4.69l-5.06,4.02Z"/>
      <path class="cls-3" d="m188.88,417.77l-6.34,15.03h-4.5l-6.31-15.03h4.5l4.16,10.22,4.3-10.22h4.19Z"/>
      <path class="cls-3" d="m204.88,426.51h-11.37c.42,1.87,2.01,3.02,4.3,3.02,1.59,0,2.74-.47,3.77-1.45l2.32,2.51c-1.4,1.59-3.49,2.43-6.2,2.43-5.19,0-8.57-3.27-8.57-7.74s3.44-7.74,8.02-7.74,7.82,2.96,7.82,7.79c0,.33-.06.81-.08,1.17Zm-11.42-2.54h7.4c-.31-1.9-1.73-3.13-3.69-3.13s-3.41,1.2-3.71,3.13Z"/>
      <path class="cls-3" d="m207.87,412.07h4.36v20.73h-4.36v-20.73Z"/>
      <path class="cls-3" d="m215.15,425.28c0-4.52,3.49-7.74,8.27-7.74s8.24,3.21,8.24,7.74-3.46,7.74-8.24,7.74-8.27-3.21-8.27-7.74Zm12.1,0c0-2.6-1.65-4.16-3.83-4.16s-3.85,1.56-3.85,4.16,1.68,4.16,3.85,4.16,3.83-1.56,3.83-4.16Z"/>
      <path class="cls-3" d="m250.93,425.28c0,4.72-3.27,7.74-7.49,7.74-1.87,0-3.41-.59-4.52-1.82v7.01h-4.36v-20.45h4.16v1.73c1.09-1.31,2.71-1.95,4.72-1.95,4.22,0,7.49,3.02,7.49,7.74Zm-4.41,0c0-2.6-1.65-4.16-3.83-4.16s-3.83,1.56-3.83,4.16,1.65,4.16,3.83,4.16,3.83-1.56,3.83-4.16Z"/>
      <path class="cls-3" d="m270.2,425.28c0,4.72-3.27,7.74-7.49,7.74-1.87,0-3.41-.59-4.52-1.82v7.01h-4.36v-20.45h4.16v1.73c1.09-1.31,2.71-1.95,4.72-1.95,4.22,0,7.49,3.02,7.49,7.74Zm-4.41,0c0-2.6-1.65-4.16-3.83-4.16s-3.83,1.56-3.83,4.16,1.65,4.16,3.83,4.16,3.83-1.56,3.83-4.16Z"/>
      <path class="cls-3" d="m287.74,426.51h-11.37c.42,1.87,2.01,3.02,4.3,3.02,1.59,0,2.74-.47,3.77-1.45l2.32,2.51c-1.4,1.59-3.49,2.43-6.2,2.43-5.19,0-8.57-3.27-8.57-7.74s3.44-7.74,8.02-7.74,7.82,2.96,7.82,7.79c0,.33-.06.81-.08,1.17Zm-11.42-2.54h7.4c-.31-1.9-1.73-3.13-3.69-3.13s-3.41,1.2-3.71,3.13Z"/>
      <path class="cls-3" d="m316.11,424.19v8.6h-4.36v-7.93c0-2.43-1.09-3.55-2.85-3.55-1.95,0-3.32,1.26-3.32,3.94v7.54h-4.36v-7.93c0-2.43-1.03-3.55-2.85-3.55-1.93,0-3.3,1.26-3.3,3.94v7.54h-4.36v-15.03h4.16v1.73c1.12-1.28,2.79-1.95,4.72-1.95,2.1,0,3.88.81,4.94,2.46,1.2-1.54,3.16-2.46,5.42-2.46,3.58,0,6.14,2.07,6.14,6.65Z"/>
      <path class="cls-3" d="m334.82,426.51h-11.37c.42,1.87,2.01,3.02,4.3,3.02,1.59,0,2.74-.47,3.77-1.45l2.32,2.51c-1.4,1.59-3.49,2.43-6.2,2.43-5.19,0-8.57-3.27-8.57-7.74s3.44-7.74,8.02-7.74,7.82,2.96,7.82,7.79c0,.33-.06.81-.08,1.17Zm-11.42-2.54h7.4c-.31-1.9-1.73-3.13-3.69-3.13s-3.41,1.2-3.71,3.13Z"/>
      <path class="cls-3" d="m353.17,424.19v8.6h-4.36v-7.93c0-2.43-1.12-3.55-3.04-3.55-2.09,0-3.6,1.28-3.6,4.05v7.43h-4.36v-15.03h4.16v1.76c1.17-1.28,2.93-1.98,4.97-1.98,3.55,0,6.23,2.07,6.23,6.65Z"/>
      <path class="cls-3" d="m366.79,432.07c-.89.64-2.21.95-3.55.95-3.55,0-5.61-1.82-5.61-5.39v-6.17h-2.32v-3.35h2.32v-3.66h4.36v3.66h3.74v3.35h-3.74v6.12c0,1.28.7,1.98,1.87,1.98.64,0,1.28-.2,1.76-.56l1.17,3.07Z"/>
    </g>
    <circle class="cls-2" cx="374.36" cy="411.82" r="3.78"/>
  </g>
</svg>