<svg xmlns="http://www.w3.org/2000/svg" width="153" height="53" viewBox="0 0 153 53"><g transform="translate(-5300 7705)"><path d="M.305,44.1Q.154,43.751,0,43.4C9.818,21.98,23.246,0,31.453,0c1.3,0,1.925,3.005,1.925,5.474a111.77,111.77,0,0,1-2.31,22.259c-.289,0-.577-.021-.866-.021-3.947,0-7.147.987-7.147,2.211s3.129,2.189,7,2.211a6.67,6.67,0,0,1-.168.73c-3.8.043-6.834,1.03-6.834,2.211,0,1.073,2.43,1.932,5.679,2.1q-1.024,3.537-2.22,6.922Z" transform="translate(5300 -7705)" fill="#40c4f3"/><text transform="translate(5344 -7661)" fill="#377dff" font-size="36" font-family="Righteous-Regular, Righteous" letter-spacing="-0.046em"><tspan x="0" y="0">B</tspan></text><text transform="translate(5368 -7661)" fill="#40c4f3" font-size="36" font-family="Righteous-Regular, Righteous" letter-spacing="-0.046em"><tspan x="0" y="0">A</tspan></text><text transform="translate(5393 -7661)" fill="#40c4f3" font-size="36" font-family="Righteous-Regular, Righteous" letter-spacing="-0.046em"><tspan x="0" y="0">T</tspan></text><text transform="translate(5414 -7661)" fill="#7feffd" font-size="36" font-family="Righteous-Regular, Righteous" letter-spacing="-0.046em"><tspan x="0" y="0">I</tspan></text><text transform="translate(5424 -7661)" fill="#5389e3" font-size="36" font-family="Righteous-Regular, Righteous" letter-spacing="-0.046em"><tspan x="0" y="0">O</tspan></text></g></svg>